<svg xmlns="http://www.w3.org/2000/svg" viewBox="0 0 48 48">
  <rect width="48" height="48" rx="24" fill="#0D2633"/>
  <path fill="url(#a)" d="M24 5.8c-4.9 6.2-11.6 13.6-11.6 22.1 0 7.1 5.2 12.5 11.6 12.5s11.6-5.4 11.6-12.5C35.6 19.4 28.9 12 24 5.8Z"/>
  <path fill="#fff" fill-opacity=".78" d="M17.5 29.4c3.7 2.2 9.5 2.2 13.1-.3-.6 4.2-3.1 6.8-6.7 6.8-3.3 0-5.9-2.4-6.4-6.5Z"/>
  <path fill="#fff" d="M34.4 9.2l1.1 3.1 3.1 1.1-3.1 1.1-1.1 3.1-1.1-3.1-3.1-1.1 3.1-1.1 1.1-3.1Z"/>
  <defs>
    <linearGradient id="a" x1="11" x2="37" y1="9" y2="40" gradientUnits="userSpaceOnUse">
      <stop stop-color="#A9ECFF"/>
      <stop offset="1" stop-color="#1F9ED6"/>
    </linearGradient>
  </defs>
</svg>
